<?xml version="1.0" encoding="UTF-8"?>
<svg id="svg1" xmlns="http://www.w3.org/2000/svg" xmlns:svg="http://www.w3.org/2000/svg" version="1.1" viewBox="0 0 584.25 125">
  <!-- Generator: Adobe Illustrator 29.5.1, SVG Export Plug-In . SVG Version: 2.1.0 Build 141)  -->
  <defs>
    <style>
      .st0 {
        fill: #fff;
      }

      .st1 {
        fill: #5fa8d1;
        fill-rule: evenodd;
      }
    </style>
  </defs>
  <g id="layer1">
    <path id="path110" d="M42.56,82.69l-10.6-6.35c-3.81,4.82-6.23,7.22-10.68,7.22-6.13,0-7.27-6.2-5.59-14.01,1.74-8.1,5.57-14.01,11.48-14.01,4.67,0,5.78,2.99,6.58,7.73l13.93-5.03c-1.43-9.63-5.23-15.03-17.78-15.03-13.72,0-25.48,9.92-29.02,26.34-3.25,15.1,2.43,26.34,17.6,26.34,12.11,0,19.2-6.49,24.07-13.21"/>
    <path id="path111" d="M91.14,69.48c3.66-17-4.05-26.27-17.91-26.27s-25.74,9.41-29.4,26.41c-3.66,17,4.05,26.27,17.91,26.27s25.74-9.41,29.4-26.41ZM76.45,69.63c-1.98,9.19-6.21,13.94-11.9,13.94s-7.99-4.89-6.01-14.08c1.98-9.19,6.21-13.94,11.9-13.94s7.99,4.89,6.01,14.08"/>
    <path id="path112" d="M133.34,95.09l11-51.07h-13.57l-3,13.94c-.9,4.16-2.28,10.94-2.41,13.21-.64-2.12-3.7-8.9-5.36-12.04l-7.98-15.1h-12.48l-11,51.07h13.57l3.36-15.61c.9-4.16,2.28-10.94,2.41-13.21.83,2.26,3.79,8.83,5.38,11.97l8.55,16.85h11.53Z"/>
    <path id="path113" d="M187.35,56.35l2.66-12.33h-42.75l-2.66,12.33h14.3l-8.34,38.74h14.15l8.34-38.74s14.3,0,14.3,0Z"/>
    <path id="path114" d="M223.28,95.09l-7.53-51.07h-14.3l-29.53,51.07h15.18l4.71-8.97h15.32l.84,8.97h15.32-.01ZM206.11,74.88h-8.46l1.67-3.36c3.22-6.49,4.64-9.34,6.03-12.77-.08,3.43.12,6.2.53,12.77l.23,3.36h0Z"/>
    <path id="path115" d="M240.06,95.09l11-51.07h-14.45l-11,51.07h14.45Z"/>
    <path id="path116" d="M290.25,95.09l11-51.07h-13.57l-3,13.94c-.9,4.16-2.28,10.94-2.41,13.21-.64-2.12-3.7-8.9-5.36-12.04l-7.98-15.1h-12.48l-11,51.07h13.57l3.36-15.61c.9-4.16,2.28-10.94,2.41-13.21.83,2.26,3.79,8.83,5.38,11.97l8.55,16.85h11.53Z"/>
    <path id="path117" d="M334.89,95.09l2.56-11.89h-25.61l1.89-8.76h15.1l2.53-11.75h-15.1l1.46-6.78h25.1l2.56-11.89h-39.11l-11,51.07h39.62Z"/>
    <path id="path118" d="M382.38,95.09l-6.02-19.48c6.17-2.55,10.76-7.3,12.41-14.96,2.61-12.11-4.37-16.63-16.33-16.63h-22.84l-11,51.07h13.93l3.71-17.22h5.69l4.61,17.22h15.84ZM374.62,61.02c-.79,3.65-3.05,5.69-7.65,5.69h-8.32l2.4-11.16h8.54c4.45,0,5.71,2.26,5.02,5.47"/>
    <path id="path119" d="M477.46,95.09l11.6-51.07h-14.45l-11.6,51.07h14.45Z"/>
    <path id="path120" d="M527.64,95.09l11.6-51.07h-13.57l-3.16,13.94c-.94,4.16-2.41,10.94-2.56,13.21-.61-2.12-3.6-8.9-5.22-12.04l-7.81-15.1h-12.48l-11.6,51.07h13.57l3.54-15.61c.94-4.16,2.41-10.94,2.56-13.21.8,2.26,3.69,8.83,5.24,11.97l8.36,16.85h11.53,0Z"/>
    <path id="path121" d="M581.91,73.27l1.41-6.2h-22.47l-2.4,10.58h9.27c-1.38,3.5-3.98,6.27-9.96,6.27-6.57,0-8.89-4.23-6.59-14.37,1.84-8.1,5.44-14.01,12.08-14.01,4.89,0,6.33,2.63,7.02,7l13.98-5.03c-1.48-9.56-5.36-14.3-18.13-14.3-15.47,0-26.34,11.24-29.76,26.34-3.79,16.71,3.58,26.34,17.59,26.34,14.81,0,24.66-8.03,27.97-22.62"/>
    <path id="path122" class="st1" d="M401.69,29.48h69.75l-15.46,66.41h-69.75s15.46-66.41,15.46-66.41Z"/>
    <path id="path123" class="st0" d="M456.71,44.81l-15.83,18.78,13.57,32.3h-16.77l-10.45-25.34,20.88-25.73h8.6Z"/>
    <path id="path124" class="st0" d="M420.52,95.89h-24.29l8.34-34.42h18.99l-3.04,34.42h0Z"/>
    <path id="path125" class="st0" d="M421.67,50.32l-1.48-5.51-3.96,5.51-2.05-5.51-3.4,5.51-4.49-5.51-.47,11.02h18.9l3.35-11.02-6.4,5.51h0Z"/>
    <path id="path126" class="st0" d="M424.27,58.43h-18.9l.25-1.42h18.9l-.25,1.42Z"/>
    <path id="path69-1" class="st0" d="M458.03,47.78v-.02c0-1.6,1.29-2.94,2.92-2.94s2.92,1.33,2.92,2.92v.02c0,1.6-1.29,2.94-2.92,2.94s-2.92-1.33-2.92-2.92h0ZM463.54,47.77h0v-.02c0-1.43-1.11-2.61-2.59-2.61s-2.59,1.19-2.59,2.62v.02c0,1.43,1.11,2.61,2.59,2.61s2.59-1.19,2.59-2.62h0ZM459.59,46.15h1.51c.87,0,1.41.37,1.41,1.08,0,.49-.24.79-.62.96l.72,1.06h-1.18l-.59-.87h-.22v.87h-1.04v-3.09h0ZM461.07,47.62h0c.25,0,.4-.1.4-.3s-.13-.3-.39-.3h-.45v.61h.44Z"/>
  </g>
</svg>