<?xml version="1.0" encoding="UTF-8"?>
<svg id="svg1" xmlns="http://www.w3.org/2000/svg" xmlns:svg="http://www.w3.org/2000/svg" version="1.1" viewBox="0 0 497.34 125">
  <!-- Generator: Adobe Illustrator 29.5.1, SVG Export Plug-In . SVG Version: 2.1.0 Build 141)  -->
  <defs>
    <style>
      .st0 {
        fill: #5fa8d1;
      }
    </style>
  </defs>
  <g id="layer1">
    <path id="path2" class="st0" d="M221.91,7.69h-74.31l-19.4,79.36c-1.09,4.52,2.91,7.25,7.56,7.27,5.52.03,6.36.03,10.61.06l-2.47-59.2h19.37l3.81,48.88,33.53-47.95h5.41l-40.6,58.38c26.45.16,4.19.14,46.08.2l18.92-80.3c.76-3.22-5.21-6.69-8.51-6.69h0ZM211.48,36.1c1.65,0,2.92,1.33,2.92,2.93v.02c0,1.6-1.29,2.94-2.92,2.94s-2.92-1.33-2.92-2.92v-.02c0-1.6,1.29-2.94,2.92-2.94h0ZM211.48,36.42c-1.46,0-2.59,1.19-2.59,2.62v.02c0,1.43,1.11,2.61,2.59,2.61s2.59-1.19,2.59-2.62v-.02c0-1.43-1.11-2.61-2.59-2.61ZM210.12,37.43h1.51c.87,0,1.41.37,1.41,1.08,0,.49-.23.79-.62.96l.72,1.06h-1.18l-.59-.87h-.22v.87h-1.04v-3.09h0ZM211.16,38.29v.6h.44c.25,0,.4-.1.4-.3s-.13-.3-.39-.3h-.45Z"/>
    <path id="text1" d="M21.81,50.76l-8.89,41.7H0l8.86-41.7h12.95ZM65.71,59.13l-13.17,4.28c-.22-1.57-.8-2.72-1.74-3.45-1.22-.96-2.74-1.44-4.55-1.44s-3.29.41-4.55,1.22c-1.12.71-1.68,1.56-1.68,2.54,0,.77.44,1.42,1.31,1.92.77.45,1.98.86,3.6,1.22.24.06,1.89.38,4.95.95,4.07.77,7.08,1.88,9.01,3.33,1.3.98,2.22,2.35,2.75,4.12.24.86.37,1.76.37,2.72,0,4.42-2.12,8.33-6.35,11.73-4.32,3.48-10.01,5.22-17.08,5.22-5.42,0-9.46-.68-12.13-2.05-2.46-1.24-4.27-2.83-5.41-4.77-.57-.98-1.05-2.45-1.44-4.43l14.14-3.51c.35,1.32.79,2.26,1.34,2.81,1.32,1.34,3.38,2.02,6.17,2.02,2.08,0,3.65-.38,4.7-1.13.86-.61,1.28-1.37,1.28-2.29,0-.83-.5-1.53-1.5-2.08-.69-.39-1.85-.74-3.48-1.07-.2-.06-1.68-.34-4.43-.82-2.57-.45-4.87-1.33-6.9-2.66-3.05-1.96-4.58-4.7-4.58-8.25,0-1.85.51-3.74,1.53-5.65,3.48-6.6,10.51-9.9,21.08-9.9,6.54,0,11.05,1.12,13.53,3.36,1.28,1.14,2.18,2.37,2.69,3.7.2.55.38,1.33.52,2.35h.02ZM97.6,49.72c4.79,0,8.82.83,12.1,2.5,5.34,2.77,8,7,8,12.68,0,4.38-.85,8.68-2.54,12.89-2.42,5.95-6.97,10.33-13.62,13.14-4.01,1.71-8.58,2.57-13.72,2.57-7.92,0-13.68-2.09-17.26-6.26-2.1-2.44-3.15-5.44-3.15-8.98,0-4.28.87-8.54,2.6-12.8,2.42-5.97,6.95-10.36,13.59-13.17,4.01-1.71,8.68-2.57,13.99-2.57h.01ZM95.25,59.74c-4.75,0-8.34,2.05-10.78,6.14-1.77,2.95-2.66,5.88-2.66,8.77,0,5.91,2.76,8.86,8.28,8.86,4.6,0,8.14-2.05,10.6-6.14,1.77-2.97,2.66-5.91,2.66-8.8,0-5.89-2.7-8.83-8.1-8.83Z"/>
    <path id="text1-4" d="M299.24,81.85c2.06,0,3.65.64,4.77,1.92.69.79,1.04,1.78,1.04,2.96,0,1.79-.69,3.38-2.08,4.77-1.71,1.73-3.85,2.6-6.42,2.6-2.1,0-3.71-.64-4.83-1.92-.69-.79-1.04-1.78-1.04-2.96,0-1.79.69-3.38,2.08-4.77,1.69-1.73,3.85-2.6,6.48-2.6ZM348.94,72.96l-12.92,3.21c.2-.96.31-1.71.31-2.26,0-2.34-1.16-3.51-3.48-3.51-2.75,0-4.85,1.54-6.29,4.61-1.28,2.79-1.92,5.38-1.92,7.76,0,2.75,1.3,4.12,3.91,4.12,2.81,0,4.89-2.01,6.23-6.02l12.1,2.96c-1.38,2.69-2.93,4.69-4.64,6.02-3.65,2.85-8.98,4.28-16.01,4.28-4.97,0-8.57-.91-10.81-2.72-2.3-1.85-3.45-4.68-3.45-8.49s.93-7.12,2.78-10.29c1.98-3.36,4.68-5.83,8.13-7.42,2.79-1.3,6.57-1.96,11.33-1.96,4.48,0,7.81.56,9.99,1.68,2.06,1.06,3.44,2.48,4.15,4.28.35.83.55,2.09.61,3.76h-.02ZM373.56,63.25c6.07,0,10.29.98,12.68,2.93,2.04,1.69,3.05,4.29,3.05,7.79,0,4.24-1.14,8.14-3.42,11.7-2.59,4.05-6.12,6.56-10.6,7.51-2.99.63-6.47.95-10.42.95-6.74,0-11.16-1.29-13.26-3.88-1.3-1.61-1.96-3.7-1.96-6.26,0-3.36.67-6.62,2.02-9.78,1.24-2.89,2.94-5.15,5.1-6.78,2.42-1.83,5.16-3,8.22-3.51,2.57-.45,5.43-.67,8.58-.67h.01ZM371.09,71.71c-2.81,0-4.95,1.04-6.42,3.12-1.22,1.75-1.83,3.74-1.83,5.96,0,3.22,1.72,4.83,5.16,4.83,2.75,0,4.87-1.04,6.35-3.12,1.22-1.73,1.83-3.72,1.83-5.96,0-3.22-1.7-4.83-5.1-4.83h.01ZM400.72,81.85c2.06,0,3.65.64,4.77,1.92.69.79,1.04,1.78,1.04,2.96,0,1.79-.69,3.38-2.08,4.77-1.71,1.73-3.85,2.6-6.42,2.6-2.1,0-3.71-.64-4.83-1.92-.69-.79-1.04-1.78-1.04-2.96,0-1.79.69-3.38,2.08-4.77,1.69-1.73,3.85-2.6,6.48-2.6h0ZM435.79,93.27l.82-3.85c-2.22,1.65-4.02,2.77-5.41,3.36-2.1.88-4.3,1.31-6.6,1.31-3.67,0-6.54-.85-8.61-2.54-1.47-1.2-2.2-2.92-2.2-5.16,0-1.3.29-3.28.86-5.93l3.48-16.4h12.1l-2.69,12.68c-.33,1.51-.49,2.78-.49,3.82,0,1.41.61,2.39,1.83,2.96.9.41,1.92.61,3.09.61,1.57,0,2.98-.4,4.25-1.19,1.18-.75,2-1.89,2.44-3.42.08-.26.29-1.13.61-2.6l2.72-12.86h12.1l-6.2,29.2h-12.1,0ZM476.17,49.47l-5.71,26.85,12.16-12.25h14.72l-13.38,12.34,9.1,16.86h-17.53l-5.83-13.32-2.84,13.32h-12.1l9.32-43.81h12.1-.01Z"/>
    <path id="text2" d="M234.59,63.57c-2.32-1.66-3.85-3.13-4.59-4.41-.89-1.52-1.34-3.18-1.34-4.99,0-3.45.89-6.73,2.67-9.85,2.2-3.8,5.82-6.66,10.88-8.56,4.75-1.81,10.13-2.72,16.13-2.72s10.9.88,14.89,2.63c4.96,2.23,7.44,5.75,7.44,10.56,0,3.8-.94,7.16-2.81,10.07-.98,1.57-2.18,2.93-3.61,4.06-1.1.86-2.79,1.93-5.08,3.21,2.11.89,3.63,1.77,4.55,2.63,2.02,1.96,3.03,4.52,3.03,7.67s-.76,6.12-2.27,9.09c-2.35,4.58-6.09,8.01-11.23,10.3-4.58,2.05-10.67,3.08-18.27,3.08-6.66,0-11.75-.73-15.29-2.18-5.79-2.41-8.69-6.6-8.69-12.57,0-4.19,1.22-7.95,3.65-11.28,1.46-1.99,3.21-3.57,5.26-4.72,1.01-.59,2.57-1.26,4.68-2.01h0ZM255.58,46.05c-3.57,0-6.27.86-8.11,2.59-1.31,1.28-1.96,2.7-1.96,4.28,0,1.4.52,2.54,1.56,3.43,1.37,1.16,3.3,1.74,5.79,1.74,3.65,0,6.46-1.03,8.42-3.08,1.25-1.28,1.87-2.69,1.87-4.23,0-1.37-.55-2.44-1.65-3.21-1.4-1.01-3.37-1.52-5.93-1.52h0ZM250.68,69.72c-4.43,0-7.7,1.01-9.81,3.03-1.46,1.37-2.18,2.93-2.18,4.68,0,1.6.71,2.91,2.14,3.92,1.75,1.28,4.06,1.92,6.91,1.92,3.92,0,7.09-1.07,9.49-3.21,1.63-1.43,2.45-3.09,2.45-4.99,0-1.52-.61-2.7-1.83-3.57-1.75-1.19-4.15-1.78-7.18-1.78h0Z"/>
    <path id="path94" d="M459.97,116.94l3.38-14.39h-4.21l-3.38,14.39h4.21Z"/>
    <path id="path95" d="M322.46,113.34l-3.11-1.8c-1.12,1.37-1.83,2.05-3.14,2.05-1.8,0-2.14-1.76-1.64-3.98.51-2.3,1.64-3.98,3.37-3.98,1.37,0,1.7.85,1.93,2.2l4.09-1.43c-.42-2.74-1.54-4.27-5.22-4.27-4.03,0-7.49,2.82-8.53,7.48-.96,4.29.71,7.48,5.17,7.48,3.56,0,5.64-1.84,7.07-3.75"/>
    <path id="path96" d="M338.3,109.58c1.08-4.83-1.19-7.46-5.26-7.46s-7.56,2.67-8.64,7.5c-1.08,4.83,1.19,7.46,5.26,7.46s7.56-2.67,8.64-7.5h0ZM333.98,109.62c-.58,2.61-1.82,3.96-3.5,3.96s-2.35-1.39-1.77-4c.58-2.61,1.83-3.96,3.5-3.96s2.35,1.39,1.77,4"/>
    <path id="path97" d="M352.26,116.86l3.23-14.51h-3.99l-.88,3.96c-.26,1.18-.67,3.11-.71,3.75-.19-.6-1.09-2.53-1.57-3.42l-2.35-4.29h-3.67l-3.23,14.51h3.99l.99-4.44c.26-1.18.67-3.11.71-3.75.24.64,1.11,2.51,1.58,3.4l2.51,4.79h3.39Z"/>
    <path id="path98" d="M369.7,105.85l.78-3.5h-12.56l-.78,3.5h4.2l-2.45,11.01h4.16l2.45-11.01h4.2,0Z"/>
    <path id="path99" d="M381.83,116.86l-2.21-14.51h-4.2l-8.68,14.51h4.46l1.38-2.55h4.5l.25,2.55h4.5ZM376.78,111.12h-2.49l.49-.95c.95-1.84,1.36-2.65,1.77-3.63-.02.97.03,1.76.16,3.63l.07.95Z"/>
    <path id="path100" d="M388.32,116.86l3.23-14.51h-4.24l-3.23,14.51h4.24Z"/>
    <path id="path101" d="M404.64,116.86l3.23-14.51h-3.99l-.88,3.96c-.26,1.18-.67,3.11-.71,3.75-.19-.6-1.09-2.53-1.58-3.42l-2.35-4.29h-3.67l-3.23,14.51h3.99l.99-4.44c.26-1.18.67-3.11.71-3.75.24.64,1.11,2.51,1.58,3.4l2.51,4.79h3.4Z"/>
    <path id="path102" d="M419.32,116.86l.75-3.38h-7.52l.55-2.49h4.44l.74-3.34h-4.44l.43-1.93h7.37l.75-3.38h-11.49l-3.23,14.51h11.65Z"/>
    <path id="path103" d="M434.85,116.86l-1.77-5.53c1.81-.73,3.16-2.07,3.65-4.25.77-3.44-1.28-4.73-4.8-4.73h-6.71l-3.23,14.51h4.09l1.09-4.89h1.67l1.35,4.89h4.66ZM432.56,107.18c-.23,1.04-.9,1.62-2.25,1.62h-2.44l.71-3.17h2.51c1.31,0,1.68.64,1.48,1.55"/>
    <path id="path104" d="M475.54,117.09l3.41-14.51h-3.99l-.93,3.96c-.28,1.18-.71,3.11-.75,3.75-.18-.6-1.06-2.53-1.53-3.42l-2.29-4.29h-3.67l-3.41,14.51h3.99l1.04-4.44c.28-1.18.71-3.11.75-3.75.23.64,1.08,2.51,1.54,3.4l2.46,4.79h3.39-.01Z"/>
    <path id="path105" d="M493.06,110.66l.41-1.76h-6.6l-.71,3.01h2.72c-.41.99-1.17,1.78-2.93,1.78-1.93,0-2.61-1.2-1.94-4.08.54-2.3,1.6-3.98,3.55-3.98,1.44,0,1.86.75,2.06,1.99l4.11-1.43c-.43-2.72-1.58-4.06-5.33-4.06-4.54,0-7.74,3.19-8.75,7.48-1.11,4.75,1.05,7.48,5.17,7.48,4.35,0,7.25-2.28,8.22-6.43"/>
    <path id="path106" d="M454.88,102.57l-4.65,5.33,3.99,9.18h-4.93l-3.07-7.2,6.14-7.31s2.52,0,2.52,0Z"/>
    <path id="path107" d="M444.25,117.02h-7.14l2.45-9.72h5.58l-.89,9.72h0Z"/>
    <path id="path108" d="M444.59,104.14l-.44-1.57-1.16,1.57-.6-1.57-1,1.57-1.32-1.57-.14,3.13h5.55l.98-3.13-1.88,1.57h.01Z"/>
    <path id="path109" d="M445.35,106.44h-5.55l.07-.4h5.55l-.07.4Z"/>
  </g>
</svg>