<?xml version="1.0" encoding="UTF-8" standalone="no"?>
<!-- Created with Inkscape (http://www.inkscape.org/) -->

<svg
   width="210mm"
   height="27mm"
   viewBox="0 0 210 27"
   version="1.1"
   id="svg1"
   xmlns="http://www.w3.org/2000/svg"
   xmlns:svg="http://www.w3.org/2000/svg">
  <defs
     id="defs1" />
  <g
     id="layer1">
    <path
       id="path110"
       d="m 16.866784,20.621395 -3.738758,-2.239306 c -1.343907,1.698751 -2.196088,2.548142 -3.7660914,2.548142 -2.1619859,0 -2.5659498,-2.187716 -1.9727787,-4.941725 0.6152988,-2.856978 1.9649697,-4.941726 4.0498281,-4.941726 1.64728,0 2.037746,1.055297 2.320851,2.728272 l 4.91246,-1.775984 C 18.168521,8.6016139 16.828518,6.6970391 12.4015,6.6970391 c -4.8387537,0 -8.9899919,3.5004239 -10.2372126,9.2914669 -1.1474085,5.327767 0.8558256,9.291465 6.2093996,9.291465 4.272467,0 6.773377,-2.29073 8.493097,-4.658576"
       style="fill:#000000;fill-opacity:1;fill-rule:nonzero;stroke:none;stroke-width:0.371871" />
    <path
       id="path111"
       d="m 34.005896,15.962772 c 1.29151,-5.9969857 -1.427838,-9.2657329 -6.318023,-9.2657329 -4.890296,0 -9.079912,3.3201769 -10.371422,9.3171999 -1.291621,5.997018 1.427615,9.265732 6.317912,9.265732 4.890184,0 9.080023,-3.320293 10.371533,-9.317199 z m -5.184521,0.05146 c -0.69845,3.243019 -2.191179,4.915987 -4.198764,4.915987 -2.007585,0 -2.820199,-1.72444 -2.12175,-4.967454 0.698337,-3.242979 2.191215,-4.915992 4.198801,-4.915992 2.007548,0 2.820088,1.724442 2.121713,4.967459"
       style="fill:#000000;fill-opacity:1;fill-rule:nonzero;stroke:none;stroke-width:0.371871" />
    <path
       id="path112"
       d="M 48.890834,24.996833 52.77109,6.9801818 h -4.787325 l -1.058756,4.9159902 c -0.315904,1.467032 -0.80577,3.860657 -0.84887,4.658625 -0.225392,-0.746426 -1.30553,-3.140126 -1.890781,-4.246853 L 41.369026,6.9801818 H 36.967852 L 33.087634,24.996833 h 4.787287 l 1.186345,-5.508011 c 0.315905,-1.467001 0.805548,-3.860623 0.848872,-4.658585 0.291361,0.797962 1.33684,3.114422 1.896246,4.221148 l 3.017775,5.945448 z"
       style="fill:#000000;fill-opacity:1;fill-rule:nonzero;stroke:none;stroke-width:0.371871" />
    <path
       id="path113"
       d="M 67.944265,11.329923 68.881047,6.9801818 H 53.798534 l -0.936782,4.3497412 h 5.044697 l -2.943436,13.66691 h 4.993192 l 2.943438,-13.66691 z"
       style="fill:#000000;fill-opacity:1;fill-rule:nonzero;stroke:none;stroke-width:0.371871" />
    <path
       id="path114"
       d="M 80.621777,24.996833 77.964531,6.9801818 h -5.0447 L 62.502111,24.996833 h 5.3535 l 1.659922,-3.165749 h 5.405005 l 0.296233,3.165749 z m -6.057306,-7.129441 h -2.985719 l 0.589677,-1.184003 c 1.136773,-2.290622 1.636122,-3.294452 2.128294,-4.504186 -0.02889,1.209734 0.0435,2.187756 0.188168,4.504186 z"
       style="fill:#000000;fill-opacity:1;fill-rule:nonzero;stroke:none;stroke-width:0.371871" />
    <path
       id="path115"
       d="M 86.539331,24.996833 90.419545,6.9801818 h -5.096051 l -3.88026,18.0166512 z"
       style="fill:#000000;fill-opacity:1;fill-rule:nonzero;stroke:none;stroke-width:0.371871" />
    <path
       id="path116"
       d="m 104.24509,24.996833 3.88025,-18.0166512 h -4.78733 l -1.05874,4.9159902 c -0.31591,1.467032 -0.80578,3.860657 -0.84887,4.658625 -0.22539,-0.746426 -1.30553,-3.140126 -1.890777,-4.246853 L 96.723294,6.9801818 H 92.322113 L 88.441899,24.996833 h 4.787284 l 1.186348,-5.508011 c 0.315906,-1.467001 0.805547,-3.860623 0.848872,-4.658585 0.29136,0.797962 1.336841,3.114422 1.896244,4.221148 l 3.017773,5.945448 z"
       style="fill:#000000;fill-opacity:1;fill-rule:nonzero;stroke:none;stroke-width:0.371871" />
    <path
       id="path117"
       d="m 119.99478,24.996833 0.90357,-4.195311 h -9.03402 l 0.66513,-3.08857 h 5.32777 l 0.89241,-4.143879 h -5.32776 l 0.51548,-2.393589 h 8.85389 l 0.90361,-4.1953022 h -13.79564 l -3.88023,18.0166512 z"
       style="fill:#000000;fill-opacity:1;fill-rule:nonzero;stroke:none;stroke-width:0.371871" />
    <path
       id="path118"
       d="m 136.74818,24.996833 -2.12324,-6.872034 c 2.17583,-0.900866 3.79729,-2.573875 4.37927,-5.276302 0.92023,-4.2725801 -1.54156,-5.8683152 -5.76259,-5.8683152 h -8.05604 l -3.88022,18.0166512 h 4.91593 l 1.30816,-6.074187 h 2.00755 l 1.62601,6.074187 z M 134.00912,12.97709 c -0.27722,1.286973 -1.07581,2.007586 -2.69736,2.007586 h -2.93418 l 0.84806,-3.937896 h 3.0114 c 1.57,0 2.01592,0.797851 1.77208,1.93031"
       style="fill:#000000;fill-opacity:1;fill-rule:nonzero;stroke:none;stroke-width:0.371871" />
    <path
       id="path119"
       d="m 170.28765,24.996833 4.09074,-18.0166512 h -5.09606 L 165.1916,24.996833 Z"
       style="fill:#000000;fill-opacity:1;fill-rule:nonzero;stroke:none;stroke-width:0.371871" />
    <path
       id="path120"
       d="m 187.99345,24.996833 4.09074,-18.0166512 h -4.78728 l -1.11621,4.9159902 c -0.33313,1.467032 -0.85081,3.860657 -0.90328,4.658625 -0.21662,-0.746426 -1.26886,-3.140126 -1.84125,-4.246853 l -2.75401,-5.3277622 h -4.40117 l -4.09073,18.0166512 h 4.78728 l 1.2506,-5.508011 c 0.33313,-1.467001 0.85081,-3.860623 0.9034,-4.658585 0.28209,0.797962 1.3004,3.114422 1.84692,4.221148 l 2.94829,5.945448 z"
       style="fill:#000000;fill-opacity:1;fill-rule:nonzero;stroke:none;stroke-width:0.371871" />
    <path
       id="path121"
       d="m 207.13774,17.301106 0.49679,-2.187726 h -7.92742 l -0.84742,3.732028 h 3.26883 v 0 c -0.48649,1.235432 -1.40345,2.213524 -3.51401,2.213524 -2.31646,0 -3.13562,-1.492842 -2.3233,-5.070426 0.6487,-2.856978 1.91987,-4.941726 4.26202,-4.941726 1.72445,0 2.23476,0.926555 2.47614,2.470862 l 4.93311,-1.775872 c -0.52137,-3.3717198 -1.89176,-5.0447309 -6.3959,-5.0447309 -5.45647,0 -9.29061,3.9636999 -10.50024,9.2914669 -1.33833,5.894011 1.26199,9.291465 6.20375,9.291465 5.22475,0 8.69881,-2.831163 9.86765,-7.978865"
       style="fill:#000000;fill-opacity:1;fill-rule:nonzero;stroke:none;stroke-width:0.371871" />
    <path
       id="path122"
       d="m 143.55919,1.8520788 h 24.60611 l -5.45405,23.4278922 h -24.6061 z"
       style="fill:#5fa8d1;fill-opacity:1;fill-rule:evenodd;stroke:none;stroke-width:0.371871" />
    <path
       id="path123"
       d="m 162.97078,7.2610928 -5.5838,6.6234752 4.78792,11.395403 h -5.91447 l -3.68681,-8.940458 7.36771,-9.0784202 z"
       style="fill:#ffffff;fill-opacity:1;fill-rule:nonzero;stroke:none;stroke-width:0.371871" />
    <path
       id="path124"
       d="m 150.20223,25.279255 h -8.56949 l 2.94057,-12.143064 h 6.69971 z"
       style="fill:#ffffff;fill-opacity:1;fill-rule:nonzero;stroke:none;stroke-width:0.373064" />
    <path
       id="path125"
       d="m 150.60803,9.2046776 -0.52371,-1.9431388 -1.39619,1.9431388 -0.72218,-1.9431388 -1.19896,1.9431388 -1.58287,-1.9431388 -0.1673,3.8871702 h 3.33432 3.33304 l 1.18189,-3.8871702 z"
       style="fill:#ffffff;fill-opacity:1;fill-rule:nonzero;stroke:none;stroke-width:0.371871" />
    <path
       id="path126"
       d="m 151.52543,12.065707 h -6.66755 l 0.087,-0.501468 h 6.66743 z"
       style="fill:#ffffff;fill-opacity:1;fill-rule:nonzero;stroke:none;stroke-width:0.371871" />
    <path
       id="path69-1"
       d="m 163.43539,8.3088602 v -0.0059 c 0,-0.5632917 0.45646,-1.0376214 1.03171,-1.0376214 0.58109,0 1.03158,0.4684187 1.03158,1.0316444 v 0.006 c 0,0.5632457 -0.45653,1.0376194 -1.03158,1.0376194 -0.58111,0 -1.03171,-0.4683967 -1.03171,-1.0317514 z m 1.94474,-0.0059 v 0 -0.006 c 0,-0.5039557 -0.39139,-0.9190807 -0.91303,-0.9190807 -0.51598,0 -0.91318,0.421038 -0.91318,0.9250587 v 0.0058 c 0,0.5040847 0.39133,0.9190804 0.91318,0.9190804 0.51578,0 0.91303,-0.4209727 0.91303,-0.9249484 z m -1.39334,-0.5692027 v 0 h 0.5336 c 0.30841,0 0.4981,0.130493 0.4981,0.3795027 0,0.171834 -0.083,0.27868 -0.21931,0.3379277 l 0.25485,0.373483 h -0.41499 l -0.20756,-0.30828 h -0.0771 v 0.30828 h -0.36761 z m 0.52182,0.5158007 v 0 c 0.0889,0 0.14221,-0.03556 0.14221,-0.106717 0,-0.07116 -0.0475,-0.106759 -0.13635,-0.106759 h -0.16007 v 0.213476 z"
       style="fill:#ffffff;fill-opacity:1;fill-rule:nonzero;stroke:none;stroke-width:0.217344" />
  </g>
</svg>
