<?xml version="1.0" encoding="UTF-8"?>
<svg id="svg1" xmlns="http://www.w3.org/2000/svg" xmlns:svg="http://www.w3.org/2000/svg" version="1.1" viewBox="0 0 568.57 125">
  <!-- Generator: Adobe Illustrator 29.5.1, SVG Export Plug-In . SVG Version: 2.1.0 Build 141)  -->
  <defs>
    <style>
      .st0 {
        fill: #fff;
      }

      .st1, .st2 {
        fill: #5fa8d1;
      }

      .st2 {
        fill-rule: evenodd;
      }
    </style>
  </defs>
  <g id="layer1">
    <path id="path60" d="M30.12,89.74h-4.92l-4.58,16.96H.78l15.94-59.35h23.15c10.94,0,17.89,2.37,21.88,6.36,3.31,3.31,4.66,7.72,4.66,12.38,0,5.6-1.7,10.6-5.77,14.67-2.54,2.54-6.02,4.66-10.77,6.19l8.22,19.75h-21.37l-6.61-16.96h.01ZM36.14,75.58h0c3.9,0,6.78-1.1,8.39-2.71,1.1-1.1,1.7-2.54,1.7-4.07,0-1.19-.42-2.29-1.27-3.14-1.1-1.1-3.05-1.7-5.85-1.7h-7.04l-3.14,11.62h7.21Z"/>
    <path id="path61" d="M78.02,47.35h50.62l-4.41,16.28h-31.12l-1.61,6.02h29l-3.82,14.33h-29l-1.78,6.44h31.54l-4.32,16.28h-51.04s15.94-59.35,15.94-59.35Z"/>
    <path id="path62" d="M134.24,47.35h18.57l13.48,28.32,7.63-28.32h19.67l-15.94,59.35h-17.64l-14.07-29.51-7.97,29.51h-19.67l15.94-59.35Z"/>
    <path id="path63" d="M212.06,64.14h-17.47l4.49-16.79h54.77l-4.49,16.79h-17.47l-11.45,42.56h-19.84l11.45-42.56h0Z"/>
    <path id="path64" d="M350.14,86.52c0-3.05.42-6.36,1.27-9.58l7.97-29.59h20.18l-8.31,30.86c-.42,1.7-.68,3.31-.68,4.66,0,4.92,2.88,7.46,8.14,7.46,2.46,0,4.75-.85,6.36-2.46,1.78-1.78,2.97-4.07,4.24-8.65l8.56-31.88h20.18l-9.41,34.93c-2.12,7.89-5.17,13.65-9.33,17.81-5.6,5.6-14.07,7.8-23.49,7.8-16.7,0-25.69-7.97-25.69-21.37"/>
    <path id="path65" d="M423.57,47.35h18.57l13.48,28.32,7.63-28.32h19.67l-15.94,59.35h-17.64l-14.07-29.51-7.97,29.51h-19.67l15.94-59.35h0Z"/>
    <path id="path66" d="M488.44,47.35h19.84l-15.94,59.35h-19.84l15.94-59.35Z"/>
    <path id="path67" d="M526.78,64.14h-17.47l4.49-16.79h54.77l-4.49,16.79h-17.47l-11.45,42.56h-19.84l11.45-42.56h0Z"/>
    <path id="path70" d="M36.52,37.4l-4.3-2.1c-1.54,1.59-2.52,2.39-4.33,2.39-2.48,0-2.95-2.05-2.27-4.63.71-2.68,2.26-4.63,4.65-4.63,1.89,0,2.34.99,2.67,2.56l5.65-1.66c-.58-3.18-2.12-4.97-7.21-4.97-5.56,0-10.33,3.28-11.77,8.71-1.32,4.99.98,8.71,7.14,8.71,4.91,0,7.78-2.15,9.76-4.37"/>
    <path id="path71" d="M56.56,33.03c1.48-5.62-1.64-8.69-7.26-8.69s-10.44,3.11-11.92,8.73,1.64,8.69,7.26,8.69,10.44-3.11,11.92-8.73ZM50.6,33.08c-.8,3.04-2.52,4.61-4.83,4.61s-3.24-1.62-2.44-4.66c.8-3.04,2.52-4.61,4.83-4.61s3.24,1.62,2.44,4.66"/>
    <path id="path72" d="M73.67,41.5l4.46-16.89h-5.5l-1.22,4.61c-.36,1.38-.93,3.62-.98,4.37-.26-.7-1.5-2.94-2.17-3.98l-3.24-4.99h-5.06l-4.46,16.89h5.5l1.36-5.16c.36-1.38.93-3.62.98-4.37.34.75,1.54,2.92,2.18,3.96l3.47,5.57h4.68Z"/>
    <path id="path73" d="M95.57,28.69l1.08-4.08h-17.33l-1.08,4.08h5.8l-3.38,12.81h5.74l3.38-12.81h5.8-.01Z"/>
    <path id="path74" d="M110.14,41.5l-3.05-16.89h-5.8l-11.97,16.89h6.15l1.91-2.97h6.21l.34,2.97h6.21ZM103.18,34.82h-3.43l.68-1.11c1.31-2.15,1.88-3.09,2.45-4.22-.03,1.13.05,2.05.22,4.22l.09,1.11h0Z"/>
    <path id="path75" d="M116.94,41.5l4.46-16.89h-5.86l-4.46,16.89h5.86Z"/>
    <path id="path76" d="M137.29,41.5l4.46-16.89h-5.5l-1.22,4.61c-.36,1.38-.93,3.62-.98,4.37-.26-.7-1.5-2.94-2.17-3.98l-3.24-4.99h-5.06l-4.46,16.89h5.5l1.36-5.16c.36-1.38.93-3.62.98-4.37.33.75,1.54,2.92,2.18,3.96l3.47,5.57h4.68Z"/>
    <path id="path77" d="M155.39,41.5l1.04-3.93h-10.38l.76-2.9h6.12l1.03-3.88h-6.12l.59-2.24h10.18l1.04-3.93h-15.85l-4.46,16.89h16.06,0Z"/>
    <path id="path78" d="M174.65,41.5l-2.44-6.44c2.5-.84,4.36-2.41,5.03-4.95,1.06-4.01-1.77-5.5-6.62-5.5h-9.26l-4.46,16.89h5.65l1.5-5.69h2.31l1.87,5.69h6.42ZM171.5,30.23c-.32,1.21-1.24,1.88-3.1,1.88h-3.37l.97-3.69h3.46c1.8,0,2.32.75,2.04,1.81"/>
    <path id="path79" class="st2" d="M182.23,19.8h30.16l-6.27,21.96h-30.16l6.27-21.96Z"/>
    <path id="path80" d="M214.29,41.77l4.7-16.89h-5.86l-4.7,16.89h5.86Z"/>
    <path id="path81" d="M234.64,41.77l4.7-16.89h-5.5l-1.28,4.61c-.38,1.38-.98,3.62-1.04,4.37-.25-.7-1.46-2.94-2.12-3.98l-3.17-4.99h-5.06l-4.7,16.89h5.5l1.44-5.16c.38-1.38.98-3.62,1.04-4.37.32.75,1.49,2.92,2.12,3.96l3.39,5.57h4.68Z"/>
    <path id="path82" d="M256.64,34.55l.57-2.05h-9.11l-.97,3.5h3.76c-.56,1.16-1.61,2.08-4.04,2.08-2.66,0-3.6-1.4-2.67-4.75.75-2.68,2.21-4.63,4.9-4.63,1.98,0,2.57.87,2.85,2.32l5.67-1.66c-.6-3.16-2.17-4.73-7.35-4.73-6.27,0-10.68,3.72-12.07,8.71-1.54,5.53,1.45,8.71,7.13,8.71,6,0,10-2.65,11.34-7.48"/>
    <path id="path83" class="st0" d="M204.81,24.87l-6.42,6.21,5.5,10.68h-6.8l-4.24-8.38,8.47-8.51h3.49Z"/>
    <path id="path84" class="st0" d="M190.13,41.69h-9.85l3.38-11.31h7.7l-1.23,11.31Z"/>
    <path id="path85" class="st0" d="M190.6,26.7l-.6-1.82-1.6,1.82-.83-1.82-1.38,1.82-1.82-1.82-.19,3.64h7.66l1.36-3.64-2.6,1.82h0Z"/>
    <path id="path86" class="st0" d="M191.65,29.38h-7.66l.1-.47h7.66l-.1.47Z"/>
    <path id="path2" class="st1" d="M270.94,19.75l-19.4,79.35c-1.09,4.52,2.91,7.25,7.56,7.27h2.03l46.48-59.84h19.31l.28,60.09h-13.86l21.51.1,18.92-80.3c.76-3.22-5.21-6.69-8.51-6.69h-74.31v.02ZM335.9,46.54c1.65,0,2.93,1.33,2.93,2.92v.02c0,1.6-1.3,2.94-2.93,2.94s-2.92-1.33-2.92-2.93v-.02c0-1.6,1.29-2.94,2.92-2.94h0ZM335.9,46.86c-1.46,0-2.59,1.19-2.59,2.62v.02c0,1.43,1.11,2.61,2.59,2.61s2.59-1.19,2.59-2.62v-.02c0-1.43-1.11-2.6-2.59-2.6h0ZM334.54,47.86h1.51c.87,0,1.41.37,1.41,1.08,0,.49-.23.79-.62.96l.72,1.06h-1.18l-.59-.87h-.22v.87h-1.04v-3.09h0ZM335.58,48.72v.61h.44c.25,0,.4-.1.4-.3s-.13-.3-.39-.3h-.45,0ZM307.88,55.35l-38.66,51.07,38.56.18.09-51.25h.01Z"/>
  </g>
</svg>